<svg xmlns="http://www.w3.org/2000/svg" viewBox="0 0 32 32" fill="none">
  <rect width="32" height="32" rx="8" fill="#2F8F82"/>
  <circle cx="16" cy="16.5" r="10" fill="#F4FAF9"/>
  <path
    fill="#1E3F3C"
    d="M11.2 12.2c0-1.7 1.1-3.1 2.5-3.1.5 0 .9.2 1.2.4.3-.2.7-.4 1.2-.4 1.4 0 2.5 1.4 2.5 3.1 0 .5-.1 1-.3 1.4h-6.8c-.2-.4-.3-.9-.3-1.4Z"
  />
  <circle cx="16" cy="17.2" r="4.8" fill="#1E3F3C"/>
  <circle cx="14.2" cy="16.8" r="0.9" fill="#F4FAF9"/>
  <circle cx="17.8" cy="16.8" r="0.9" fill="#F4FAF9"/>
  <circle cx="13" cy="23.6" r="1.15" fill="#5EC4B6"/>
  <circle cx="19" cy="23.6" r="1.15" fill="#5EC4B6"/>
  <circle cx="16" cy="21.4" r="1.35" fill="#2F8F82"/>
</svg>
